<svg width="227" height="52" viewBox="0 0 227 52" fill="none" xmlns="http://www.w3.org/2000/svg">
<g clip-path="url(#clip0_141_687)">
<path d="M227.001 3.3528C227.001 5.25061 225.577 6.7056 223.659 6.7056C221.802 6.7056 220.317 5.25061 220.317 3.3528C220.317 1.51825 221.802 0 223.659 0C225.515 0 227.001 1.45499 227.001 3.3528ZM221.121 3.3528C221.121 4.80779 222.173 6.00973 223.659 6.00973C225.082 6.00973 226.134 4.80779 226.134 3.3528C226.134 1.89781 225.082 0.695864 223.659 0.695864C222.173 0.695864 221.121 1.89781 221.121 3.3528ZM223.102 5.06083H222.359V1.77129C222.669 1.70803 223.102 1.64477 223.597 1.64477C224.216 1.64477 224.463 1.77129 224.711 1.89781C224.897 2.02433 225.02 2.27737 225.02 2.65693C225.02 3.0365 224.773 3.28954 224.34 3.41606V3.47932C224.649 3.60584 224.835 3.85888 224.958 4.3017C225.082 4.80779 225.144 4.99757 225.206 5.12409H224.401C224.278 4.99757 224.216 4.68127 224.154 4.3017C224.092 3.92214 223.906 3.79562 223.473 3.79562H223.102V5.06083ZM223.164 3.16302H223.535C223.968 3.16302 224.278 3.0365 224.278 2.65693C224.278 2.34063 224.03 2.15085 223.597 2.15085C223.411 2.15085 223.287 2.15085 223.164 2.21411V3.16302Z" fill="white"/>
<path d="M22.0316 32.1363C22.0316 30.3017 20.9177 29.0998 18.6898 28.4039C16.5237 27.708 14.0483 27.0754 11.3871 26.3796C4.1464 24.4818 0.618866 21.0657 0.618866 16.0681C0.680753 8.1606 5.32225 4.23846 14.4196 4.30172C23.0837 4.30172 27.6014 8.1606 28.0346 16.0049H23.8263C22.2792 16.0049 21.1652 15.2458 20.4845 13.7908C19.2467 11.6399 17.0188 10.5645 13.8007 10.5645C9.90185 10.6278 7.92148 12.146 7.79771 14.9927C7.79771 17.3966 10.1494 19.1046 14.9766 20.1801C17.7615 20.8759 20.6701 21.6983 23.7645 22.7737C27.9109 24.2287 29.8293 27.3285 29.6437 32.073C29.2105 39.4745 24.3214 43.0803 14.9766 43.0803C5.13659 43.2068 0.18566 39.0316 0 30.8078H7.30262C7.55016 34.7932 10.0875 36.8175 14.9147 36.8175C19.7418 36.8175 22.0935 35.236 22.0316 32.1363Z" fill="white"/>
<path d="M50.0664 25.9368H39.6075V42.6375H32.1812V8.98299C32.1812 6.83214 33.8521 4.93433 35.9562 4.93433H58.8543V11.4501H39.6075V19.5475H54.0271V22.0146C54.0271 24.2287 52.1705 25.9368 50.0664 25.9368Z" fill="white"/>
<path d="M83.546 32.1363C83.546 30.3017 82.4321 29.0998 80.2042 28.4039C78.0381 27.708 75.5627 27.0754 72.9015 26.3796C65.6608 24.4818 62.1333 21.0657 62.1333 16.0681C62.3189 8.1606 66.8985 4.23846 75.9959 4.30172C84.66 4.30172 89.1777 8.1606 89.6109 16.0049H85.4026C83.8555 16.0049 82.7415 15.2458 82.0608 13.7908C80.823 11.6399 78.5951 10.5645 75.377 10.5645C71.4782 10.6278 69.4978 12.146 69.374 14.9927C69.374 17.3966 71.7257 19.1046 76.5529 20.1801C79.3377 20.8759 82.2464 21.6983 85.3407 22.7737C89.4871 24.2287 91.4056 27.3285 91.22 32.073C90.7868 39.4745 85.8977 43.0803 76.5529 43.0803C66.7748 43.0803 61.8857 38.9051 61.6382 30.7445H68.9408C69.1883 34.7299 71.7257 36.7543 76.5529 36.7543C81.3181 36.8175 83.6079 35.236 83.546 32.1363Z" fill="white"/>
<path d="M135.903 25.9368H125.444V42.6375H118.018V8.98299C118.018 6.83214 119.689 4.93433 121.793 4.93433H144.691V11.4501H125.444V19.5475H139.864V22.0146C139.864 24.2287 138.007 25.9368 135.903 25.9368Z" fill="white"/>
<path d="M146.857 8.98299C146.857 6.32605 148.095 4.93433 150.632 4.93433H154.345V42.6375H146.795V8.98299H146.857Z" fill="white"/>
<path d="M190.054 8.98299C190.054 6.38931 191.291 4.99759 193.829 4.93433H216.603C216.665 4.93433 216.727 4.99759 216.727 5.06085V11.3236C216.727 11.3869 216.665 11.4501 216.603 11.4501H197.666C197.604 11.4501 197.542 11.5134 197.542 11.5767V19.3577C197.542 19.4209 197.604 19.4842 197.666 19.4842H211.776C211.838 19.4842 211.9 19.5475 211.9 19.6107V21.9514C211.962 24.545 210.662 25.8102 208.001 25.8102H197.666C197.604 25.8102 197.542 25.8735 197.542 25.9368V35.4258C197.542 35.4891 197.604 35.5523 197.666 35.5523H216.603C216.665 35.5523 216.727 35.6156 216.727 35.6789V42.3212C216.727 42.3844 216.665 42.4477 216.603 42.4477H190.239C190.177 42.4477 190.116 42.3844 190.116 42.3212V8.98299H190.054Z" fill="white"/>
<path d="M218.584 48.2676H0.124023V52H218.584V48.2676Z" fill="#EE322E"/>
<path d="M182.566 24.4185C182.504 24.4185 182.504 24.292 182.566 24.292C185.969 23.2165 187.888 20.18 187.888 15.4988C187.888 7.71774 183.68 4.74451 176.006 4.74451H162.081C159.977 4.74451 158.244 6.5158 158.244 8.66665V42.3844C158.244 42.7007 158.306 42.7007 158.306 42.7007H165.794V27.8345C165.794 27.7713 165.794 27.7713 165.856 27.7713H173.778C175.449 27.7713 177.12 27.708 178.419 29.0365C179.038 29.6691 178.976 30.5547 178.976 31.4404C178.976 35.1095 178.976 38.7786 178.976 42.3844C178.976 42.5109 179.038 42.5742 179.162 42.5742H186.403C186.526 42.5742 186.65 42.5109 186.65 42.3844C186.65 37.9562 186.898 33.3382 186.464 28.9732C186.279 26.7591 184.546 25.1143 182.566 24.4185ZM174.644 21.1922H165.732V11.2603H175.201C177.986 11.2603 180.214 13.5377 180.152 16.3844C180.152 19.8637 178.172 21.1922 174.644 21.1922Z" fill="white"/>
</g>
<defs>
<clipPath id="clip0_141_687">
<rect width="227" height="52" fill="white"/>
</clipPath>
</defs>
</svg>
